<?xml version="1.0" encoding="utf-8"?>
<!-- Generator: Adobe Illustrator 26.0.1, SVG Export Plug-In . SVG Version: 6.00 Build 0)  -->
<svg version="1.1" id="Layer_1" xmlns="http://www.w3.org/2000/svg" xmlns:xlink="http://www.w3.org/1999/xlink" x="0px" y="0px"
	 viewBox="0 0 691.4 663.2" style="enable-background:new 0 0 691.4 663.2;" xml:space="preserve">
<style type="text/css">
	.st0{fill:#EDEDEE;}
	.st1{fill:#000FAA;stroke:#000FAA;stroke-width:4;stroke-linecap:round;stroke-linejoin:round;}
	.st2{fill:none;stroke:#000FAA;stroke-width:4;stroke-linecap:round;stroke-linejoin:round;}
	.st3{fill:#000099;}
	.st4{fill:none;stroke:#FFFFFF;stroke-width:4;stroke-linecap:round;stroke-linejoin:round;}
	.st5{fill:#FFFFFF;stroke:#000FAA;stroke-width:4;stroke-linecap:round;stroke-linejoin:round;}
	.st6{fill:#FFFFFF;}
	.st7{fill:#0058FF;stroke:#0058FF;stroke-width:4;stroke-linecap:round;stroke-linejoin:round;}
	.st8{fill:#FF6700;stroke:#FF6700;stroke-width:4;stroke-linecap:round;stroke-linejoin:round;}
	.st9{fill:#00CD87;stroke:#00CD87;stroke-width:1.6;stroke-linecap:round;stroke-linejoin:round;}
</style>
<path id="path101056" class="st0" d="M0.1,385.7C-3.4,494.9,82.6,586.5,191.7,590c51.6,1.6,194.8-30.8,231.1-62
	c190.6-154.6,240.3-296,251.8-326.4c10-25.6,11-38,11.6-57.5c1.5-44.2-33.2-81.2-77.4-82.7c-20.8-0.7-41.1,6.8-56.5,20.8l0,0
	l-1.8,1.5C418.1,190.5,206.1,194.1,204,194.1H204C95,190.8,3.6,276.7,0.1,385.7z"/>
<path id="path101058" class="st1" d="M272.3,2.3l247.6,32.4c21,4.5,26.9,25.2,32.2,33.6c4.3,6.8,6,14.9,5,22.8l-69.6,534.2
	c-2.5,18.9-19.8,32.3-38.7,29.8c0,0,0,0,0,0l-246.1-32.1c-7.9-1-15.3-4.8-20.8-10.6c-0.2-0.3-9.2-13-9.4-13.3
	c-6.3-8.2-9.6-17.4-8.2-27.7"/>
<path id="path101060" class="st2" d="M519.9,34.7c21,4.5,26.9,25.2,32.2,33.6c4.3,6.8,6,14.9,5,22.8l-69.6,534.2"/>
<path id="path101062" class="st3" d="M509.1,459.2l-21.7,166.2c-2.5,18.9-19.8,32.3-38.7,29.8c0,0,0,0,0,0l-246.1-32.1
	c-9-1.2-17.3-5.9-22.9-13.1c-0.4-0.5-9.9-14.6-10.2-15.1c-4.8-6.8-6.4-15.5-5.3-24.4l70.9-540.2c2.5-18,19.2-30.6,37.3-28.1
	l245.4,32"/>
<polyline id="polyline101064" class="st4" points="218.9,155 223,123.7 227.7,87.6 "/>
<path id="path101066" class="st5" d="M227.7,87.6l7.4-57.2C237.2,14.2,251,2,267.4,2c1.4,0,2.8,0.1,4.2,0.3l246.1,32.1
	c17.8,2.3,30.4,18.6,28.1,36.5c0,0,0,0,0,0l-69.6,534.2c-2.1,16.2-15.9,28.3-32.2,28.4c-1.4,0-2.8-0.1-4.2-0.3l-246.1-32.1
	c-17.8-2.3-30.4-18.7-28.1-36.5L218.9,155"/>
<circle id="circle101068" class="st6" cx="320.6" cy="571.9" r="15.1"/>
<path id="rect101070" class="st1" d="M374.1,40.6l35,4.6c3.2,0.4,5.5,3.4,5.1,6.6l0,0c-0.4,3.2-3.4,5.5-6.6,5.1l-35-4.6
	c-3.2-0.4-5.5-3.4-5.1-6.6l0,0C368,42.4,370.9,40.1,374.1,40.6z"/>
<line id="line101072" class="st4" x1="464.8" y1="616.7" x2="470.3" y2="652.6"/>
<polyline id="polyline101074" class="st5" points="382.1,536.4 188.8,510.8 247.6,59.4 381.8,76.9 525.4,95.6 466.6,547 
	435.5,543.3 "/>
<line id="line101076" class="st2" x1="242.3" y1="101.4" x2="519.9" y2="138.2"/>
<path id="path101078" class="st5" d="M459.6,263.5l-193.2-25.2c-2.8-0.4-5.4,1.6-5.8,4.5L241.9,387c-0.4,2.8,1.6,5.4,4.5,5.8
	L439.5,418c2.8,0.4,5.4-1.6,5.8-4.5c0,0,0,0,0,0l1.2-9.5l22.7-10.8L450,377.3l14.1-108C464.5,266.5,462.5,263.9,459.6,263.5
	C459.6,263.5,459.6,263.5,459.6,263.5L459.6,263.5z"/>
<path id="path101080" class="st5" d="M441.1,288.2l1-7.8c0.3-2.3-1.3-4.4-3.6-4.7l-157.4-20.5c-2.3-0.3-4.4,1.3-4.7,3.6c0,0,0,0,0,0
	L266,339"/>
<path id="path101082" class="st7" d="M434.5,299.9c-13.3,7.9-27,14.4-41.9,18.5c-16.4,4.6-33.1,6.7-50,7.9
	c-28.3,2-58.6,3.7-78.3,26.2l-3.1,23.8c-0.3,2.3,1.3,4.4,3.6,4.7l157.4,20.5c2.3,0.3,4.4-1.3,4.7-3.6c0,0,0,0,0,0L440,296.5
	C438.1,297.7,436.3,298.8,434.5,299.9L434.5,299.9z"/>
<path id="path101084" class="st5" d="M310.3,429.3l-35.5-4.6l-32.3-4.2c-2.8-0.4-5.4,1.6-5.8,4.5c0,0,0,0,0,0l-1,8.1l-22.5,11.3
	l19.1,15.1l-0.9,7c-0.4,2.8,1.6,5.4,4.5,5.8l124.7,16.2c2.8,0.4,5.4-1.6,5.8-4.5c0,0,0,0,0,0l5.4-41.5c0.4-2.8-1.6-5.4-4.5-5.8
	c0,0,0,0,0,0l-21.6-2.8"/>
<ellipse id="ellipse101086" transform="matrix(0.9916 -0.1295 0.1295 0.9916 -56.5009 47.2525)" class="st8" cx="335.1" cy="458.1" rx="10.7" ry="10.4"/>
<line id="line101088" class="st2" x1="304.6" y1="454.7" x2="254.2" y2="448.1"/>
<path id="path101090" class="st5" d="M311.5,158.1l-34-4.4c-2.8-0.4-5.4,1.6-5.8,4.5c0,0,0,0,0,0l-1,8.1l-22.5,11.2l19.1,15.2
	l-0.9,6.9c-0.4,2.8,1.6,5.4,4.5,5.8l193.6,25.2c2.8,0.4,5.4-1.6,5.8-4.5c0,0,0,0,0,0l5.4-41.5c0.4-2.8-1.6-5.4-4.5-5.8l-126-16.3"/>
<line id="line101092" class="st2" x1="321.3" y1="186.3" x2="296.6" y2="182.9"/>
<line id="line101094" class="st2" x1="406.4" y1="199.1" x2="339.2" y2="188.8"/>
<ellipse id="ellipse101096" transform="matrix(0.9916 -0.1295 0.1295 0.9916 -22.3187 57.7732)" class="st8" cx="433.1" cy="200.5" rx="10.7" ry="10.4"/>
<path id="path101098" class="st1" d="M500.1,108.1l-4.6-0.6l-0.6,4.8l-0.6,4.9l4.6,0.6c0.4,0,0.7-0.2,0.8-0.6c0,0,0,0,0,0l0.5-3.8
	l0.6-4.4C500.8,108.5,500.5,108.2,500.1,108.1C500.1,108.1,500.1,108.1,500.1,108.1z"/>
<path id="path101100" class="st5" d="M490.4,120.3l-36.8-4.8c-1.8-0.2-3.1-1.9-2.9-3.8c0,0,0,0,0,0l0.7-5.5l0.8-6
	c0.2-1.9,1.9-3.2,3.8-2.9l17.7,2.3l19.2,2.5c1.8,0.2,3.2,1.9,2.9,3.8l-0.8,6.3l-0.7,5.2C494,119.2,492.3,120.6,490.4,120.3
	C490.4,120.3,490.4,120.3,490.4,120.3z"/>
<path id="path101102" class="st1" d="M479.4,100.4l-5.8-0.8L456,97.3c-1.9-0.2-3.5,1.1-3.8,2.9l-0.8,6l-0.7,5.5
	c-0.2,1.8,1.1,3.5,2.9,3.8c0,0,0,0,0,0l23.6,3.1L479.4,100.4z"/>
<path id="path101104" class="st2" d="M676.6,315c-5.4,20.8-12.8,41.1-21.8,60.6c-10.2,21.9-23.1,42.5-38.5,61.1
	c-9.2,11.1-19.5,21.4-30.5,30.7"/>
<path id="path101106" class="st2" d="M689.4,231.9c-0.7,23-3.7,45.9-9.1,68.3"/>
<path id="path101108" class="st9" d="M561.5,500.3c-7.2,0-13.1-5.9-13-13.1c0-6.8,5.2-12.4,11.9-13c0.4,0,0.8,0,1.1,0
	c6.8,0.1,12.4,5.2,13,12c0.6,7.2-4.7,13.5-11.9,14.1c0,0,0,0,0,0C562.2,500.4,561.8,500.4,561.5,500.3L561.5,500.3z"/>
</svg>
