<svg xmlns="http://www.w3.org/2000/svg" version="1.1" id="Layer_1" x="0" y="0" viewBox="0 0 1079.537 677.474" xml:space="preserve"><style type="text/css" id="style53805">.st0{fill:#fff}.st1,.st2,.st3,.st4,.st5{fill:none;stroke:#000faa;stroke-width:4;stroke-linecap:round;stroke-linejoin:round;stroke-miterlimit:10}.st2,.st3,.st4,.st5{fill:#fff}.st3,.st4,.st5{fill:#0058ff;stroke:#0058ff}.st4,.st5{fill:#000faa;stroke:#000faa}.st5{fill:#ff6700;stroke:#ff6700}.st8{fill:#e0e0e1}.st10,.st12,.st13{fill:#fff;stroke:#fff;stroke-width:4;stroke-linecap:round;stroke-linejoin:round;stroke-miterlimit:10}.st12,.st13{fill:none}.st13{stroke:#0058ff}</style><path class="st0" d="m 778.63714,396.79992 c -7.9,-75.3 -70.4,-136.1 -126.4,-181.5 l -95.2,54.3 c 37.1,31.6 77.6,75.3 94.4,121.6 l -229.2,-6.8 c 46.8,-80.9 23.4,-136.6 -61.1,-172.2 -102.8,-41.7 -240.4,-13.9 -322.300004,59.9 -65.8,61.5 -37.2000003,129.7 36.2,166.3 32.200004,15.9 67.500004,25.1 102.800004,30.5 10,1.5 20.5,2.7 30.6,3.4 4.1,0.3 9.1,0.6 13.2,0.7 l 7.4,0.3 -1,2 c -25.9,46.7 -23.3,93.8 15.4,132.4 37.6,37 89.3,56.8 140.6,65.2 67.2,9.2 127.7,1.8 184.2,-14.1 76.5,-23.8 188.2,-82.1 207.1,-166.7 0.1,-0.1 11.1,-43 3.3,-95.3 z m -471.4,-54.9 c -0.3,13.6 -3.9,27 -7.9,40 -42,-1.5 -87.4,-4.6 -125,-25.1 -17.4,-9.3 -38.7,-29.4 -27.2,-50.6 5.8,-10.2 16.5,-16.7 27,-21.4 25.1,-10.6 53.9,-9.6 79.6,-1.6 16.4,5.3 32.9,13.4 43.8,27.1 7.1,8.9 10.1,20.4 9.7,31.6 z m 316.4,187.3 c -25.4,21.8 -57.4,34.9 -89.9,41.5 -27.6,6.4 -58.4,8.3 -97.4,-0.6 -27,-6.5 -58.1,-19.6 -74.3,-43.2 -9.9,-14.4 -10.9,-32.4 -6,-48.8 l 293.6,6.7 c -1,17.9 -13,32.9 -26,44.4 z" id="path53809"/><path class="st1" d="m 517.73714,387.19992 -95.4,-2.8 c 32,-55.4 31.2,-99 0.3,-132.4 m 137.1,409 c 2.9,-0.8 5.7,-1.5 8.6,-2.3 76.5,-23.8 188.2,-82.1 207.1,-166.7 0,0 10.9,-42.9 3.2,-95.2 -7.9,-75.3 -70.4,-136.1 -126.4,-181.5 l -95.2,54.3 c 37.1,31.6 77.6,75.3 94.4,121.6 m -414.1,-198 c -73.2,4.1 -146.900004,32.4 -198.500004,78.8 -65.8,61.5 -37.2000003,129.7 36.2,166.3 32.200004,15.9 67.500004,25.1 102.800004,30.5 10,1.5 20.5,2.7 30.6,3.4 4.1,0.3 9.1,0.6 13.2,0.7 l 7.4,0.3 -1,2 c -25.9,46.7 -23.3,93.8 15.4,132.4 37.6,37 89.3,56.8 140.6,65.2 m -80.3,-351.9 c 2.6,6.6 3.8,13.9 3.6,21 -0.3,13.6 -3.9,27 -7.9,40 -42,-1.5 -87.4,-4.6 -125,-25.1 -17.4,-9.3 -38.7,-29.4 -27.2,-50.6 5.8,-10.2 16.5,-16.7 27,-21.4 19.4,-8.2 41,-9.5 61.6,-5.9 m 200.5,291.3 c -27,-6.5 -58.1,-19.6 -74.3,-43.2 -9.9,-14.4 -10.9,-32.4 -6,-48.8 l 151.3,3.4 m 142.4,3.2 c -1.1,17.9 -13.1,32.9 -26,44.4 -25.4,21.8 -57.4,34.9 -89.9,41.5" id="path53811"/><path class="st2" d="m 615.13714,219.49992 23.5,-13.3 V 98.999924 l -43.6,-40.4 -47.1,96.199996 c -0.3,0.6 -0.8,1 -1.3,1.3 v 102 l 35.5,-20" id="path53813"/><line class="st1" x1="595.137" y1="58.6" x2="646.837" y2="106.4" id="line53815"/><polygon class="st3" points="713.8,442.2 713.8,372.2 746.7,353.4 746.7,423.6" id="polygon53817" transform="translate(-131.56286,-204.10008)"/><path class="st4" d="m 595.13714,58.599924 -102.7,-56.6000002 -47.7,96.7000002 c -1,1.799996 -0.2,3.999996 1.7,4.699996 l 96.7,53.1 c 1.8,0.6 3.8,-0.1 4.8,-1.8 z" id="path53819"/><path class="st2" d="m 543.23714,156.59992 -95.3,-52.4 v 99.2 l 98.9,54.7 v -102 c -1.1,0.7 -2.4,0.9 -3.6,0.5 z" id="path53821"/><polyline class="st2" points="633.8,357 633.8,399 656.4,410.3 656.4,368.3" id="polyline53823" transform="translate(-131.56286,-204.10008)"/><line class="st1" x1="587.437" y1="200.2" x2="592.637" y2="196.9" id="line53825"/><polygon class="st5" points="633.8,353.9 656.4,365.3 656.4,371.3 633.8,359.9" id="polygon53827" transform="translate(-131.56286,-204.10008)"/><polyline class="st2" points="598.6,339.1 598.6,381.4 621.2,392.8 621.2,350.5" id="polyline53829" transform="translate(-131.56286,-204.10008)"/><polygon class="st5" points="598.6,336.4 621.2,347.8 621.2,353.8 598.6,342.4" id="polygon53831" transform="translate(-131.56286,-204.10008)"/><path class="st2" d="m 595.93714,134.39992 c 6.5,1.3 13,-3.8 14.5,-11.5 1.5,-7.7 -2.5,-14.9 -8.9,-16.2 -6.5,-1.3 -13,3.8 -14.5,11.5 -0.7,3.7 -0.2,7.3 1.3,10.2" id="path53833"/><path class="st1" d="m 447.83714,203.39992 c 0,0 -8.7,-12.9 -21.7,-14.7" id="path53835"/><path class="st1" d="m 447.53714,202.39992 c 0,0 -4.4,-20.7 -25.3,-30.5" id="path53837"/><polygon class="st0" points="635.3,285.1 659,298.1 659,277.9 635.3,264.8" id="polygon53839" transform="translate(-131.56286,-204.10008)"/><g id="g53845" transform="translate(-131.56286,-204.10008)"><g id="g53843"><path class="st0" d="m 658.6,283.3 c 3.1,0 6.1,-2.8 6,-6 -0.1,-3.3 -2.6,-6 -6,-6 -3.1,0 -6.1,2.8 -6,6 0.2,3.3 2.7,6 6,6 z" id="path53841"/></g></g><g id="g53851" transform="translate(-131.56286,-204.10008)"><g id="g53849"><path class="st0" d="m 658.6,283.4 c 3.1,0 6.1,-2.8 6,-6 -0.1,-3.3 -2.6,-6 -6,-6 -3.1,0 -6.1,2.8 -6,6 0.2,3.2 2.7,6 6,6 z" id="path53847"/></g></g><polygon points="672.5,270.5 659,298.1 659,277.9" id="polygon53853" transform="translate(-131.56286,-204.10008)" style="fill:#000faa"/><polygon class="st0" points="648.9,257.4 672.5,270.5 659,277.9 635.3,264.8" id="polygon53855" transform="translate(-131.56286,-204.10008)"/><line x1="527.137" y1="73.6" x2="503.737" y2="60.7" id="line53857" style="fill:#fff;stroke:#000faa;stroke-width:4;stroke-linecap:square;stroke-linejoin:round;stroke-miterlimit:10"/><line class="st4" x1="621.737" y1="337.3" x2="721.037" y2="280.9" id="line53859"/><line class="st2" x1="81.537" y1="441" x2="194.037" y2="365.9" id="line53861"/><line class="st2" x1="4.537" y1="323.4" x2="144.537" y2="324.2" id="line53863"/><line class="st2" x1="167.437" y1="287.6" x2="85.437" y2="237.6" id="line53865"/><line class="st2" x1="364.037" y1="529.5" x2="237.537" y2="600.9" id="line53867"/><path class="st8" d="m 235.83714,278.99992 c 24.8,4.3 57.7,17.1 67.9,42 l 118.7,-69 c -14,-15 -32,-26.1 -50.4,-34.9 -41.3,-19.4 -87.9,-26.2 -133.2,-23.9" id="path53871"/><path class="st4" d="m 350.63714,206.89992 -14.1,6.9 c -11.1,5.4 -24.2,3.9 -33.7,-4.1 l -28.5,-23.8 c -3.8,-3.2 -5.8,-7.6 -6.1,-12.1 v 0 c 0,0 -0.4,16.8 1,21.8 1.9,6.7 5.8,12.6 11.1,17.1 l 18.9,15.4 c 7.5,6.3 18,7.7 26.9,3.5 l 10.3,-4.2 c 11.2,-5.3 18.4,-14.4 19.6,-26.9 v 0 c -0.9,2.8 -2.7,5.1 -5.4,6.4 z" id="path53873"/><line x1="235.637" y1="278.4" x2="238.937" y2="193.1" id="line53875" style="fill:none;stroke:#e0e0e1;stroke-width:4;stroke-linecap:round;stroke-linejoin:round;stroke-miterlimit:10"/><ellipse transform="rotate(-11.695367)" class="st10" cx="288.093" cy="315.308" rx="14.599" ry="20.099" id="ellipse53877"/><line class="st1" x1="346.037" y1="250.4" x2="305.637" y2="219.6" id="line53879"/><ellipse transform="rotate(-11.695367)" class="st10" cx="207.302" cy="297.163" rx="9.4" ry="12.999" id="ellipse53881"/><polyline class="st1" points="394.8,453.1 419,422 435.6,400.9" id="polyline53883" transform="translate(-131.56286,-204.10008)"/><polyline class="st1" points="468,447.1 468,447.1 448.1,458.7 436.8,465.3 405.1,440.8 405.1,440.8" id="polyline53885" transform="translate(-131.56286,-204.10008)"/><polyline class="st1" points="436.3,422.5 436.3,422.5 405.1,440.8" id="polyline53887" transform="translate(-131.56286,-204.10008)"/><ellipse transform="rotate(-11.695367)" class="st10" cx="252.457" cy="324.666" rx="14.599" ry="20.099" id="ellipse53889"/><line class="st1" x1="312.337" y1="266.8" x2="273.337" y2="236.5" id="line53891"/><path class="st0" d="m 307.53714,122.49992 c 0,0 0,0 0,0 0,0 0,0 0,0 -0.8,-0.1 -13.2,-0.7 -20.7,17.5 -2,4.8 -3.2,10 -3.6,15.2 12.9,-4.1 27.1,-1.4 37.7,7.5 l 13.6,11.3 c -3.2,-10.6 -5.9,-32.1 -10.3,-39.8 -4.4,-7.8 -10.3,-10.3 -14.1,-11.1 z" id="path53895"/><path class="st2" d="m 350.63714,206.89992 -14.1,6.9 c -11.1,5.4 -24.2,3.9 -33.7,-4.1 l -28.5,-23.8 c -9.4,-7.9 -7.7,-23 3.3,-28.5 v 0 0 c 14.2,-7 31.1,-5 43.4,5.2 l 31.7,26.4 c 5.8,5.1 4.7,14.5 -2.1,17.9 z" id="path53897"/><path class="st1" d="m 316.23714,159.49992 c -1.3,-5.9 -3.7,-17.4 -5.1,-20.9 -1.2,-3.1 -3.2,-5.9 -5.8,-8 v 0 c -2.6,-2.1 -5.5,-3.6 -8.7,-4.4" id="path53899"/><path class="st1" d="m 303.93714,154.29992 c 0,0 -3,-6.5 -5.5,-10.1 -3.4,-4.9 -9.5,-7.1 -15.1,-5.5 -0.1,0 -0.3,0.1 -0.4,0.1" id="path53901"/><path d="m 274.03714,189.09992 c -6.3,-8.6 -9.8,-19 -9.7,-29.6 0.5,-30.6 29.5,-38.2 43.2,-36.8 0,0 -12.9,-1.3 -20.7,17.5 -3.2,7.8 -4.4,16.2 -3.5,24.6 l 4.4,43.1 z" id="path53903" style="fill:#00cd87;stroke:#00cd87;stroke-width:4;stroke-linecap:round;stroke-linejoin:round;stroke-miterlimit:10"/><path class="st1" d="m 310.23714,123.19992 c 3.8,0.8 9.6,3.3 14.1,11.1 4.5,7.8 7.1,29.2 10.3,39.8" id="path53907"/><path class="st12" d="m 287.33714,122.39992 c -5.4,2.5 -11.9,10.4 -14,16.1 v 0 c -3.8,10.3 -3.8,21.6 -0.2,31.9 l 14.5,35.5" id="path53909"/><ellipse transform="rotate(-11.695367)" class="st0" cx="239.125" cy="258.31" rx="4.1" ry="5.7" id="ellipse53911" style="stroke-width:.99996"/><path class="st2" d="m 229.03714,473.19992 c 19.3,-37.9 61.5,-61.8 70.7,-92.8" id="path53913"/><path class="st2" d="m 356.03714,478.19992 c 13,-34.5 52.4,-65.8 67.4,-96.2" id="path53915"/><line class="st2" x1="432.837" y1="384.5" x2="292.737" y2="381.7" id="line53917"/><line class="st2" x1="362.337" y1="478.4" x2="224.837" y2="473" id="line53919"/><line class="st2" x1="610.037" y1="539.7" x2="697.137" y2="595.5" id="line53921"/><line class="st1" x1="777.937" y1="391.1" x2="651.437" y2="391.1" id="line53923"/><line class="st1" x1="649.737" y1="484.8" x2="776.537" y2="487.1" id="line53925"/><path class="st8" d="m 651.43714,391.09992 -132.5,-3.9 -10.4,94.4 141.1,3.2 c 2.7,-15.8 7.8,-53.4 1.8,-93.7 z" id="path53927"/><polyline class="st10" points="746.6,676.9 667.7,631.4 667.9,572.1" id="polyline53929" transform="translate(-131.56286,-204.10008)"/><polyline class="st12" points="667.9,572.1 746.8,617.6 746.6,676.9" id="polyline53931" transform="translate(-131.56286,-204.10008)"/><polygon class="st10" points="746.6,676.9 746.6,617.6 667.9,572.1 667.7,631.4" id="polygon53933" transform="translate(-131.56286,-204.10008)"/><polygon class="st10" points="770.3,604 746.8,617.6 667.9,572.1 691.4,558.5" id="polygon53935" transform="translate(-131.56286,-204.10008)"/><polyline class="st2" points="770.3,604 746.8,617.6 667.9,572.1 691.4,558.5 757.4,596.6" id="polyline53937" transform="translate(-131.56286,-204.10008)"/><line class="st12" x1="621.237" y1="389.8" x2="638.737" y2="399.9" id="line53939"/><polygon class="st4" points="770.1,663.3 746.6,676.9 746.8,617.6 770.3,604" id="polygon53941" transform="translate(-131.56286,-204.10008)"/><polygon class="st3" points="681.5,639.4 685.3,641.6 685.3,582.2 708.8,568.6 705,566.4 681.5,580" id="polygon53943" transform="translate(-131.56286,-204.10008)"/><polygon class="st3" points="729.3,666.9 733.2,669.1 733.2,609.7 756.6,596.1 752.8,593.9 729.3,607.6" id="polygon53945" transform="translate(-131.56286,-204.10008)"/><line class="st2" x1="580.337" y1="371.7" x2="580.337" y2="380.4" id="line53947"/><line class="st2" x1="596.837" y1="381.3" x2="596.837" y2="389.9" id="line53949"/><polygon class="st5" points="729.8,584.6 726.8,586.5 710.2,576.9 713.3,575" id="polygon53951" transform="translate(-131.56286,-204.10008)"/><line class="st2" x1="559.737" y1="661.1" x2="568.337" y2="658.6" id="line53953"/><path class="st2" d="m 334.63714,600.89992 c 0,0 23.4,-19.9 55.1,-12.9" id="path53955"/><path class="st8" d="m 533.73714,570.69992 c -32,6.2 -65.6,6.8 -97.4,-0.6 l -52.2,102.6 c 58.3,9.4 118.9,4.6 175.6,-11.6 z" id="path53957"/><ellipse class="st4" cx="437.437" cy="610.7" rx="33.5" ry="15.2" id="ellipse53959"/><path class="st0" d="m 424.73714,614.69992 c -12,0 -20.9,-4.5 -22.6,-11.4 -7.7,-30.9 -5.8,-52.8 6.2,-68.7 l 18.8,-4.9 c 19.6,9.2 27.4,27.3 32.6,43.8 l 4,14.4 c 1.2,4.8 -1.3,9.2 -3.6,12 -4.8,5.9 -13.1,10.7 -22.8,13.2 -4.2,1.1 -8.5,1.6 -12.6,1.6 0,0 0,0 0,0 z" id="path53961"/><path class="st3" d="m 460.63714,574.89992 c -8.6,6.9 -19.2,12.2 -30.3,14.8 -10.4,2.4 -21.3,2.4 -31.2,-1.3 0.7,4.7 1.8,9.6 3.1,14.8 1.7,7 10.6,11.4 22.6,11.4 v 0 c 4.1,0 8.3,-0.5 12.6,-1.6 9.7,-2.4 18,-7.2 22.8,-13.2 2.3,-2.9 4.8,-7.3 3.6,-12 z" id="path53963"/><path class="st13" d="m 438.33714,614.59992 c 9.7,-2.4 18,-7.2 22.8,-13.2 2.3,-2.9 4.8,-7.3 3.6,-12 l -3.2,-15.5" id="path53965"/><path class="st13" d="m 400.53714,603.69992 c 2.7,10.6 19.3,15.6 37.2,11.1 10.2,-2.5 18.5,-7.6 23.4,-13.4" id="path53967"/><path class="st13" d="m 397.13714,586.99992 c 0.8,5.4 2,11 3.4,16.7 v 0" id="path53969"/><path class="st1" d="m 461.43714,572.99992 c -6.4,-20.6 -15.3,-36.6 -34,-45.2 l -20,5.2 c -11.4,14.7 -13.4,33.2 -10.3,53.9" id="path53971"/><path class="st2" d="m 405.53714,535.59992 c -6.3,-2.6 -11.3,-8.1 -13.1,-15.2 -3,-12 4.3,-24.2 16.3,-27.2 12,-3 24.2,4.3 27.2,16.3 1.8,7.4 -0.2,14.8 -4.8,20.2" id="path53975"/><path class="st1" d="m 429.83714,539.49992 c 0,0 16.7,9.4 25.9,46.3" id="path53977"/><path class="st1" d="m 401.03714,533.09992 c 0,0 4.1,4.1 11,2.5" id="path53979"/><polygon class="st4" points="1062.5,641.1 1109.1,692.2 1112,672.7 1202.2,672.7 1209.1,615.5 1209.1,615.5 1118.8,615.5 1122.3,598.3" id="polygon53981" transform="translate(-131.56286,-204.10008)"/><path class="st2" d="m 777.93714,391.09992 c 0.3,1.9 0.5,3.7 0.7,5.6 6.2,41.8 0.4,77.6 -2.1,90.3 l 132.8,2.3 11,-98.3 h -142.4 z" id="path53983"/><polyline class="st1" points="667.9,591.3 667.7,631.4 744.3,676.9" id="polyline53985" transform="translate(-131.56286,-204.10008)"/></svg>