<svg id="Geld" xmlns="http://www.w3.org/2000/svg" viewBox="0 0 417.2 500"><defs><style>.cls-1{fill:#fff;}.cls-1,.cls-2,.cls-3{stroke:#009;}.cls-1,.cls-2,.cls-3,.cls-4,.cls-5{stroke-linecap:round;stroke-linejoin:round;stroke-width:4px;}.cls-2{fill:#009;}.cls-3,.cls-5{fill:none;}.cls-4{fill:#fd6400;stroke:#fd6400;}.cls-5{stroke:#fff;}</style></defs><path class="cls-1" d="M370,358c100.28,26.21,163.88,65.53,163.88,65.53"/><path class="cls-2" d="M76.2,315.27a25.31,25.31,0,0,0-3.9-.73,21.94,21.94,0,0,0-24,21.58h0a1.74,1.74,0,0,1-1.86,1.72,12,12,0,0,0-1.58-.07,29.86,29.86,0,0,0-30.32,30.85,23.64,23.64,0,0,0,2.32,10.59h0c18.53-6.22,38.45-12,59.37-16.95h0Z"/><line class="cls-3" x1="140.07" y1="121.4" x2="65.02" y2="210.16"/><polygon class="cls-1" points="217.78 242.59 370.01 189.91 370.01 357.96 217.78 410.65 217.78 242.59"/><polyline class="cls-1" points="76.2 197.12 76.2 362.33 217.78 410.65 217.78 242.59"/><polygon class="cls-4" points="112.41 374.71 112.41 266.82 163.11 283.96 163.11 392.05 112.41 374.71"/><path class="cls-2" d="M221.22,253.32a4.9,4.9,0,0,1-4.24-2.45L140.07,121.4,303.16,65.81l75.72,128.73a3.7,3.7,0,0,1,.27,3.11,3.54,3.54,0,0,1-2.26,2.19L222.81,252.92A3.6,3.6,0,0,1,221.22,253.32Z"/><polygon class="cls-1" points="256.23 146.49 298.86 133.12 265.7 114.98 222.74 128.29 256.23 146.49"/><polygon class="cls-1" points="256.23 146.49 298.86 133.12 298.86 167.01 256.23 181.37 256.23 146.49"/><polygon class="cls-1" points="286.35 275.42 286.35 344.72 251.6 356.5 251.6 287.2 286.35 275.42"/><polygon class="cls-1" points="338.24 257.62 338.24 326.98 303.49 338.77 303.49 269.4 338.24 257.62"/><line class="cls-3" x1="154.97" y1="333.34" x2="146.89" y2="330.62"/><polyline class="cls-1" points="275.5 146.95 262.26 151.19 262.26 173.36 293.43 162.71 293.43 141.13 284.89 143.91"/><path class="cls-1" d="M140,234.52c-10,2-20-5.89-22.37-17.67s3.77-23,13.76-25,20,5.89,22.37,17.67a23.73,23.73,0,0,1-2.05,15.75"/><path class="cls-3" d="M370,358a68.4,68.4,0,0,1,33.43-22.57"/><path class="cls-3" d="M370,358s7.28-33.56,39.52-48.71"/><polygon class="cls-4" points="251.6 287.2 286.35 275.42 286.35 283.96 251.6 295.74 251.6 287.2"/><polygon class="cls-4" points="303.49 269.4 338.24 257.62 338.24 266.16 303.49 278 303.49 269.4"/><path class="cls-5" d="M42,355.25s19.73-.93,31.38,7.74c-2.12-7.74-4.7-16.88-4.7-16.88"/><path class="cls-1" d="M-71,414.88c34-16.28,86.51-38.19,147.14-52.48"/></svg>