<svg id="Geld" xmlns="http://www.w3.org/2000/svg" viewBox="0 0 417.2 500"><defs><style>.cls-1,.cls-3{fill:none;}.cls-1,.cls-4{stroke:#009;}.cls-1,.cls-2,.cls-3,.cls-4{stroke-linecap:round;stroke-linejoin:round;stroke-width:4px;}.cls-2{fill:#fd6400;stroke:#fd6400;}.cls-3{stroke:#fff;}.cls-4{fill:#009;}</style></defs><path class="cls-1" d="M128.8,241.94c5.09,4.16,16.76,10.57,26.06,13.92a90.69,90.69,0,0,0,30.44,5.08A95.53,95.53,0,0,0,208.75,258l1.39-.35"/><path class="cls-2" d="M95,410.26A2.8,2.8,0,0,1,93.8,410L4.32,361.05a2.64,2.64,0,0,1-1-3.47l45.18-82.66a4.87,4.87,0,0,0,.4-3.69,4.81,4.81,0,0,0-2.31-2.89l-11.78-6.41a2.52,2.52,0,0,1-1.33-2.37A2.59,2.59,0,0,1,35,257.31l107.67-47.2a2.28,2.28,0,0,1,1-.23,2.6,2.6,0,0,1,2.54,2.14l18.37,116.1a2.5,2.5,0,0,1-.58,2.08,2.64,2.64,0,0,1-2,.93h0a2.47,2.47,0,0,1-1.22-.35l-11.78-6.41a4.51,4.51,0,0,0-2.31-.58,4.9,4.9,0,0,0-4.28,2.54L97.32,409A2.87,2.87,0,0,1,95,410.26Zm31.83-180.1a13.08,13.08,0,0,0-6.3,24.55,13.23,13.23,0,0,0,6.24,1.61,13.08,13.08,0,0,0,6.3-24.55A12.65,12.65,0,0,0,126.84,230.16Z"/><polyline class="cls-3" points="47.99 384.9 74.74 336.04 105.3 352.73 78.55 401.6"/><path class="cls-1" d="M249.41,99.44a93.89,93.89,0,0,1,26.81,89.88"/><path class="cls-1" d="M128.8,241.94A93.46,93.46,0,0,1,229.54,85.17"/><path class="cls-1" d="M260.1,223.57A93.39,93.39,0,0,1,242,241.83l-1.09.86"/><path class="cls-1" d="M239.59,240.79c3.12,5.25,8.5,8.49,14,8.49a13,13,0,0,0,6.59-1.79,12.78,12.78,0,0,0,5.43-6.65c-.35.12-.75.29-1.21.47a14.7,14.7,0,0,1-18.66-6.24c-3.41-5.66-3.12-12.36.29-16.64l.17-.17a11.82,11.82,0,0,0-2.77,1.21C236.65,223.51,235,233.05,239.59,240.79Z"/><path class="cls-4" d="M344.61,405.93l-2.2-14.32-10.68-2.55L327.86,373l-12.54-8.9L283.9,311.55l-1.5-.64a48.22,48.22,0,0,1-11.21,1.33c-20.45,0-40.55-12.31-52.33-32.06-17.27-28.88-11.21-64.41,13.51-79.19a45.79,45.79,0,0,1,23.74-6.47c20.45,0,40.55,12.3,52.34,32.06,14.21,23.74,12.13,53.89-3.87,71.68l57.88,96.18,1,19.12ZM250,217.74a12.86,12.86,0,0,0-6.58,1.79c-6.7,4-8.44,13.57-3.82,21.31,3.12,5.26,8.5,8.49,14,8.49a12.92,12.92,0,0,0,6.59-1.79c6.7-4,8.43-13.57,3.81-21.31A16.63,16.63,0,0,0,250,217.74Z"/><path class="cls-1" d="M368.81,389.06l-56.38-93.63c16-17.85,17-49.79,2.14-74.57-17.67-29.64-52.62-41.3-78-26.11a47.71,47.71,0,0,0-17,17.67,44.5,44.5,0,0,1,12.83-11.49,45.74,45.74,0,0,1,23.74-6.47c20.45,0,40.55,12.3,52.33,32.06,14.21,23.74,12.13,53.89-3.87,71.68l57.88,96.18v.23h0l.92,18.89,6.3-5.72Z"/><line class="cls-1" x1="304.58" y1="298.26" x2="312.43" y2="295.49"/><path class="cls-1" d="M362.46,394.72c.52,0,6.35-5.6,6.35-5.6"/><path class="cls-4" d="M186.16,410.67a.26.26,0,0,1-.23-.23l-2.08-12.94a15.53,15.53,0,0,0-1-3.82,17.28,17.28,0,0,0-8.95-9.24c-.12-.06-.17-.11-.17-.23s.05-.17.17-.23l1.5-.69a17.2,17.2,0,0,0,8.9-9.13l1.61-3.93c.06-.11.12-.17.24-.17s.17.06.23.17l1.61,3.93a17,17,0,0,0,8.9,9.13l1.5.69c.12.06.17.12.17.23s-.05.17-.17.23a17.53,17.53,0,0,0-8.95,9.24,16.66,16.66,0,0,0-1,3.82l-2.08,12.94C186.39,410.55,186.34,410.67,186.16,410.67Z"/><path class="cls-2" d="M377.36,281.28a.25.25,0,0,1-.23-.23l-2.08-12.94a15.76,15.76,0,0,0-1-3.81,17.3,17.3,0,0,0-8.95-9.25c-.12-.05-.18-.11-.18-.23s.06-.17.18-.23l1.5-.69a17.18,17.18,0,0,0,8.89-9.13l1.62-3.93c.06-.11.12-.17.23-.17a.23.23,0,0,1,.23.17l1.62,3.93a17,17,0,0,0,8.9,9.13l1.5.69c.11.06.17.12.17.23a.23.23,0,0,1-.17.23,17.54,17.54,0,0,0-9,9.25,16.44,16.44,0,0,0-1,3.81l-2.08,12.94C377.59,281.16,377.48,281.28,377.36,281.28Z"/><path class="cls-1" d="M233.3,409.11a302.71,302.71,0,0,0,71.22-20"/><path class="cls-1" d="M366.79,350.54A284.59,284.59,0,0,0,413,306.23"/><line class="cls-3" x1="319.42" y1="335.4" x2="349.23" y2="385.31"/><line class="cls-3" x1="306.48" y1="313.74" x2="314.57" y2="327.31"/><path class="cls-3" d="M240.87,242.69a93.38,93.38,0,0,1-30.73,15"/></svg>